<svg xmlns="http://www.w3.org/2000/svg" enable-background="new 0 0 64 64" viewBox="0 0 64 64"><path d="M29.98,57.12H1.43C0.64,57.12,0,56.48,0,55.69V1.96c0-0.79,0.64-1.43,1.43-1.43h54.32c0.79,0,1.43,0.64,1.43,1.43v25.31
				c0,0.79-0.64,1.43-1.43,1.43c-0.79,0-1.43-0.64-1.43-1.43V3.39H2.87v50.86h27.11c0.79,0,1.43,0.64,1.43,1.43
				S30.77,57.12,29.98,57.12z"/><path d="M17.56 19.56H7.67c-.79 0-1.43-.64-1.43-1.43V8.24c0-.79.64-1.43 1.43-1.43h9.89c.79 0 1.43.64 1.43 1.43v9.89C19 18.92 18.35 19.56 17.56 19.56zM9.11 16.7h7.02V9.67H9.11V16.7zM49.59 19.56h-25.9c-.79 0-1.43-.64-1.43-1.43V8.24c0-.79.64-1.43 1.43-1.43h25.9c.79 0 1.43.64 1.43 1.43v9.89C51.02 18.92 50.38 19.56 49.59 19.56zM25.12 16.7h23.04V9.67H25.12V16.7zM17.56 50.41H7.67c-.79 0-1.43-.64-1.43-1.43V23.66c0-.79.64-1.43 1.43-1.43h9.89c.79 0 1.43.64 1.43 1.43v25.31C19 49.77 18.35 50.41 17.56 50.41zM9.11 47.54h7.02V25.1H9.11V47.54zM51.69 63.48c-.8 0-1.57-.38-2.06-1.09l-1.21-1.75c-2.12.46-4.35.46-6.47-.02l-1.22 1.75c-.74 1.06-2.19 1.39-3.32.74l-3.23-1.87c-1.12-.65-1.57-2.08-1.01-3.25l.83-1.76-.05-.33c-.68-.77-1.28-1.6-1.78-2.49-.55-.97-.99-1.97-1.31-2.97l-2.12-.18c-1.31-.11-2.3-1.19-2.3-2.5l0-3.73c0-1.3 1.02-2.4 2.31-2.5l2.13-.17c.66-2.07 1.78-4 3.25-5.59l-.91-1.92c-.55-1.18-.1-2.6 1.03-3.25l3.24-1.85c1.12-.64 2.58-.31 3.31.76l1.21 1.75c.86-.19 1.74-.29 2.61-.32 1.26-.07 2.57.05 3.86.34l1.22-1.75c.74-1.07 2.21-1.39 3.33-.74l3.22 1.87c1.14.66 1.57 2.06 1.01 3.24l-.91 1.93c.73.8 1.37 1.69 1.91 2.64.55.97.99 1.97 1.31 2.97l2.12.18c1.29.11 2.3 1.21 2.3 2.51l-.01 3.72c0 1.32-1 2.39-2.3 2.5l-2.13.18c-.66 2.07-1.78 4-3.25 5.6l.91 1.92c.56 1.18.11 2.6-1.03 3.25l-3.24 1.85C52.55 63.37 52.12 63.48 51.69 63.48zM48.58 57.72c.81 0 1.59.4 2.07 1.09l1.16 1.68 2.67-1.53-.87-1.85c-.44-.93-.26-2.05.44-2.79 1.31-1.38 2.3-3.06 2.84-4.88.29-.97 1.17-1.68 2.19-1.77l2.05-.17.01-3.07-2.03-.17c-1.03-.09-1.9-.8-2.21-1.81-.26-.87-.64-1.74-1.12-2.58-.47-.83-1.04-1.6-1.68-2.28-.7-.74-.87-1.85-.43-2.78l.88-1.86-2.66-1.55-1.17 1.68c-.59.85-1.64 1.25-2.64 1.01-1.1-.27-2.23-.37-3.33-.32-.8.02-1.57.12-2.32.3-.99.24-2.04-.17-2.63-1.02l-1.16-1.68-2.67 1.53.87 1.85c.44.93.26 2.05-.44 2.79-1.3 1.36-2.27 3.03-2.82 4.84-.31 1.01-1.18 1.72-2.22 1.81l-2.04.16 0 3.08 2.04.17c1.02.08 1.9.8 2.19 1.77.26.88.64 1.76 1.13 2.62.46.82 1.03 1.58 1.68 2.27.2.21.33.48.38.77l.18 1.19c.04.28 0 .57-.12.82l-.88 1.86 2.67 1.54 1.17-1.68c.6-.86 1.65-1.25 2.69-1 1.83.44 3.77.44 5.59.01C48.2 57.74 48.39 57.72 48.58 57.72zM38.93 31.21L38.93 31.21C38.93 31.21 38.93 31.21 38.93 31.21zM45.24 53.59c-.5 0-1-.05-1.5-.15-1.67-.32-3.2-1.21-4.29-2.49l-.29-.35c-1.33-1.77-1.83-3.87-1.47-5.97.36-2.07 1.58-3.91 3.33-5.06.5-.35 1.11-.66 1.76-.88 1.14-.39 2.37-.5 3.57-.31 1.79.25 3.45 1.16 4.64 2.54 1.67 1.95 2.27 4.57 1.61 7.01-.66 2.44-2.5 4.4-4.93 5.25C46.9 53.45 46.07 53.59 45.24 53.59zM45.21 41.15c-.51 0-1.02.08-1.5.25-.4.14-.76.32-1.08.54-1.13.74-1.89 1.89-2.11 3.18-.23 1.31.09 2.63.9 3.71l.23.28c.65.77 1.59 1.31 2.64 1.52.83.17 1.67.11 2.42-.16.01 0 .01 0 .02-.01 1.55-.54 2.68-1.74 3.11-3.29.42-1.55.05-3.15-1.01-4.39-.74-.86-1.76-1.42-2.89-1.57C45.69 41.17 45.45 41.15 45.21 41.15z"/></svg>