<svg xmlns="http://www.w3.org/2000/svg" width="32" height="32"><path style="text-indent:0;text-align:start;line-height:normal;text-transform:none;block-progression:tb;marker:none;-inkscape-font-specification:Sans" d="M2.344 2A.515.515 0 0 0 2 2.5v27c0 .262.238.5.5.5h27a.52.52 0 0 0 .5-.5v-27a.52.52 0 0 0-.5-.5h-27a.501.501 0 0 0-.156 0zM3 3h26v3H3zm1.5 1a.5.5 0 1 0 0 1 .5.5 0 0 0 0-1zm2 0a.5.5 0 1 0 0 1 .5.5 0 0 0 0-1zm2 0a.5.5 0 1 0 0 1 .5.5 0 0 0 0-1zM3 7h26v22H3zm7.844 1a.503.503 0 0 0-.219.125L9.312 9.469a.522.522 0 0 0 .063.75l6.656 4.844-5.531 5.5-.344-.22-1.062-.593-1.031-.625a.515.515 0 0 0-.594.094l-.688.656-.625.656a.522.522 0 0 0 .063.75l3.25 2.532a.521.521 0 0 0-.056.74c.193.202.563.191.743-.022l.031-.031 2.5 3.313c.179.22.555.235.75.03l.688-.655.656-.657a.516.516 0 0 0 .063-.625l-.594-1.031-.594-1.063-.219-.343 5.5-5.5 4.844 6.687c.169.229.546.26.75.063l1.313-1.344a.513.513 0 0 0 .093-.563l-3.875-7.968 2.282-2.281c.8-.8.8-2.076 0-2.876a2.11 2.11 0 0 0-1.469-.624c-.527 0-1.038.225-1.438.624l-2.28 2.25-7.97-3.906A.505.505 0 0 0 10.845 8zm.219 1.125 7.343 3.563-1.656 1.656-6.344-4.563zm11.812.938c.269 0 .54.07.75.28.42.42.42 1.08 0 1.5-3.705 3.746-7.431 7.463-11.156 11.188a.513.513 0 0 0-.094.563l.094.187a.5.5 0 0 0 0 .032l.312.53.594 1.063.438.657-.407.406-.25.25-2.25-2.938 1-1c.293-.298-.025-.91-.437-.843a.503.503 0 0 0-.25.125l-1.031 1.03-2.938-2.218.25-.281.406-.375.719.375 1.031.625.531.281c.01.01.02.021.032.031l.156.094c.19.1.594-.094.594-.094l8.75-8.781 2.406-2.406c.21-.21.481-.281.75-.281zm-12.219 1.562-.906.875.719.719.906-.875zm1.281 1.344-1.75 1.75.72.719 1.75-1.75zm9.376 2.625 3.593 7.312-.656.688-4.594-6.344zm-.97 5.719-1.78 1.75.718.718 1.75-1.75zm1.282 1.343-.875.875.719.719.875-.875z" color="#000" enable-background="accumulate" font-family="Sans" font-weight="400" overflow="visible"/></svg>