<svg xmlns="http://www.w3.org/2000/svg" width="32" height="32"><path style="line-height:normal;text-indent:0;text-align:start;text-decoration-line:none;text-decoration-style:solid;text-decoration-color:#000;text-transform:none;block-progression:tb;white-space:normal;isolation:auto;mix-blend-mode:normal;solid-color:#000;solid-opacity:1" d="M8.93 0C7.886 0 7 .81 7 1.838v28.324C7 31.19 7.886 32 8.93 32h15.14c1.044 0 1.93-.81 1.93-1.838V1.838C26 .81 25.114 0 24.07 0H8.93zm0 1h15.14c.542 0 .93.384.93.838v28.324c0 .455-.388.838-.93.838H8.93c-.542 0-.93-.383-.93-.838V1.838C8 1.384 8.388 1 8.93 1zm8.855.998-3.574.01.004 1 3.574-.01-.004-1zm-8.32.012A.5.495 0 0 0 9 2.504.5.495 0 0 0 9.5 3a.5.495 0 0 0 .5-.496.5.495 0 0 0-.5-.494.5.495 0 0 0-.035 0zM9 4v22h15V4H9zm1 1h13v20h-1v-9.006H11V25h-1V5zm1 .994v9h11v-9H11zm1 1h9v3.055l-.875-.73-3.207 3.206-1.938-1.119L12 13.395v-6.4zm2.49 1c-.825 0-1.51.675-1.51 1.5s.685 1.5 1.51 1.5c.826 0 1.51-.675 1.51-1.5s-.684-1.5-1.51-1.5zm0 1c.29 0 .51.22.51.5s-.22.5-.51.5c-.29 0-.51-.22-.51-.5s.22-.5.51-.5zm5.696 1.678.814.68v2.642h-8.096l2.116-1.41 2.062 1.191 3.104-3.103zM12 16.994h9v3.055l-.875-.73-3.207 3.206-1.941-1.12L12 23.438v-6.445zm2.49 1c-.825 0-1.51.675-1.51 1.5s.685 1.5 1.51 1.5c.826 0 1.51-.675 1.51-1.5s-.684-1.5-1.51-1.5zm0 1c.29 0 .51.22.51.5s-.22.5-.51.5c-.29 0-.51-.22-.51-.5s.22-.5.51-.5zm5.696 1.678.814.68v3.642h-9v-.342l3.023-2.066 2.059 1.19 3.104-3.104zM16.49 27c-.825 0-1.51.675-1.51 1.5s.685 1.5 1.51 1.5c.826 0 1.51-.675 1.51-1.5s-.684-1.5-1.51-1.5zm0 1c.29 0 .51.22.51.5s-.22.5-.51.5c-.29 0-.51-.22-.51-.5s.22-.5.51-.5z" color="#000" enable-background="accumulate" font-family="sans-serif" font-weight="400" overflow="visible"/></svg>